# Blender v2.92.0 OBJ File: 'ESP-boksi.blend'
# www.blender.org
mtllib ESP-boksi_Laatikko.mtl
o ulkoseina_Cube.002
v -0.088472 -0.034945 0.050952
v -0.088472 -0.034945 -0.050952
v 0.088472 -0.034945 0.050952
v 0.088472 -0.034945 -0.050952
v -0.091000 -0.037500 0.053500
v -0.091000 0.037500 0.053500
v -0.091000 -0.037500 -0.053500
v -0.091000 0.037500 -0.053500
v 0.091000 -0.037500 0.053500
v 0.091000 0.037500 0.053500
v 0.091000 -0.037500 -0.053500
v 0.091000 0.037500 -0.053500
v -0.088472 0.037500 0.050952
v -0.088472 0.037500 -0.050952
v 0.088472 0.037500 -0.050952
v 0.088472 0.037500 0.050952
vt 0.375000 0.000000
vt 0.625000 0.000000
vt 0.625000 0.250000
vt 0.375000 0.250000
vt 0.625000 0.500000
vt 0.375000 0.500000
vt 0.625000 0.750000
vt 0.375000 0.750000
vt 0.625000 1.000000
vt 0.375000 1.000000
vt 0.125000 0.500000
vt 0.125000 0.750000
vt 0.601390 0.000000
vt 0.375000 0.000000
vt 0.375000 0.250000
vt 0.601390 0.250000
vt 0.375000 0.500000
vt 0.601390 0.500000
vt 0.375000 0.750000
vt 0.601390 0.750000
vt 0.375000 1.000000
vt 0.601390 1.000000
vt 0.125000 0.500000
vt 0.125000 0.750000
vt 0.871528 0.744048
vt 0.875000 0.750000
vt 0.875000 0.500000
vt 0.871528 0.505952
vt 0.628472 0.505952
vt 0.628472 0.744048
vn -1.0000 0.0000 0.0000
vn 0.0000 0.0000 -1.0000
vn 1.0000 0.0000 0.0000
vn 0.0000 0.0000 1.0000
vn 0.0000 -1.0000 0.0000
vn 0.0000 1.0000 0.0000
usemtl None
s off
f 5/1/1 6/2/1 8/3/1 7/4/1
f 7/4/2 8/3/2 12/5/2 11/6/2
f 11/6/3 12/5/3 10/7/3 9/8/3
f 9/8/4 10/7/4 6/9/4 5/10/4
f 7/11/5 11/6/5 9/8/5 5/12/5
f 13/13/3 1/14/3 2/15/3 14/16/3
f 14/16/4 2/15/4 4/17/4 15/18/4
f 4/17/1 3/19/1 16/20/1 15/18/1
f 3/19/2 1/21/2 13/22/2 16/20/2
f 2/23/6 1/24/6 3/19/6 4/17/6
f 13/25/6 6/26/6 10/7/6 12/5/6 8/27/6 14/28/6 15/29/6 16/30/6
f 8/27/6 6/26/6 13/25/6 14/28/6
